{
  "accessors": [
    {
      "bufferView": 2,
      "componentType": 5126,
      "count": 65532,
      "max": [
        10.821799278259277,
        5.8136157989501953,
        7.3686790466308594
      ],
      "min": [
        -15.337948799133301,
        -7.8173179626464844,
        -13.936690330505371
      ],
      "type": "VEC3"
    },
    {
      "bufferView": 2,
      "byteOffset": 786384,
      "componentType": 5126,
      "count": 65532,
      "max": [
        0.99996423721313477,
        0.99996501207351685,
        0.99999409914016724
      ],
      "min": [
        -0.99989610910415649,
        -0.99998712539672852,
        -0.99995750188827515
      ],
      "type": "VEC3"
    },
    {
      "bufferView": 3,
      "componentType": 5126,
      "count": 65532,
      "max": [
        0.99996322393417358,
        0.99997818470001221,
        0.9999549388885498,
        1
      ],
      "min": [
        -0.99998849630355835,
        -0.99993616342544556,
        -0.99997347593307495,
        -1
      ],
      "type": "VEC4"
    },
    {
      "bufferView": 3,
      "byteOffset": 1048512,
      "componentType": 5126,
      "count": 65532,
      "max": [
        1,
        1,
        1,
        1
      ],
      "min": [
        0.019607843831181526,
        0,
        0,
        1
      ],
      "type": "VEC4"
    },
    {
      "bufferView": 1,
      "componentType": 5126,
      "count": 65532,
      "max": [
        0.99736702442169189,
        1
      ],
      "min": [
        0.00046700000530108809,
        0
      ],
      "type": "VEC2"
    },
    {
      "bufferView": 0,
      "componentType": 5125,
      "count": 322221,
      "max": [
        65531
      ],
      "min": [
        0
      ],
      "type": "SCALAR"
    },
    {
      "bufferView": 2,
      "byteOffset": 1572768,
      "componentType": 5126,
      "count": 64409,
      "max": [
        10.840925216674805,
        6.1766829490661621,
        7.6427960395812988
      ],
      "min": [
        -15.365475654602051,
        -7.8173179626464844,
        -13.936690330505371
      ],
      "type": "VEC3"
    },
    {
      "bufferView": 2,
      "byteOffset": 2345676,
      "componentType": 5126,
      "count": 64409,
      "max": [
        0.99989789724349976,
        0.99995046854019165,
        0.99997353553771973
      ],
      "min": [
        -0.99991875886917114,
        -0.99999666213989258,
        -0.99997466802597046
      ],
      "type": "VEC3"
    },
    {
      "bufferView": 3,
      "byteOffset": 2097024,
      "componentType": 5126,
      "count": 64409,
      "max": [
        0.99999344348907471,
        0.99992823600769043,
        0.99998074769973755,
        1
      ],
      "min": [
        -0.9999617338180542,
        -0.99999308586120605,
        -0.99996578693389893,
        -1
      ],
      "type": "VEC4"
    },
    {
      "bufferView": 3,
      "byteOffset": 3127568,
      "componentType": 5126,
      "count": 64409,
      "max": [
        1,
        1,
        1,
        1
      ],
      "min": [
        0.019607843831181526,
        0.0078431377187371254,
        0,
        1
      ],
      "type": "VEC4"
    },
    {
      "bufferView": 1,
      "byteOffset": 524256,
      "componentType": 5126,
      "count": 64409,
      "max": [
        0.99787300825119019,
        1
      ],
      "min": [
        0.00016399999731220305,
        0
      ],
      "type": "VEC2"
    },
    {
      "bufferView": 0,
      "byteOffset": 1288884,
      "componentType": 5125,
      "count": 277779,
      "max": [
        64408
      ],
      "min": [
        0
      ],
      "type": "SCALAR"
    }
  ],
  "asset": {
    "extras": {
      "author": "Digital Archive of Natural History (DiNArDa) (https://sketchfab.com/disc3d)",
      "license": "CC-BY-4.0 (http://creativecommons.org/licenses/by/4.0/)",
      "source": "https://sketchfab.com/3d-models/saperda-candida-7cb78813cc7d43548a4023441e4eb47e",
      "title": "Saperda candida"
    },
    "generator": "Sketchfab-6.66.0",
    "version": "2.0"
  },
  "bufferViews": [
    {
      "buffer": 0,
      "byteLength": 2400000,
      "byteOffset": 0,
      "name": "floatBufferViews",
      "target": 34963
    },
    {
      "buffer": 0,
      "byteLength": 1039528,
      "byteOffset": 2400000,
      "byteStride": 8,
      "name": "floatBufferViews",
      "target": 34962
    },
    {
      "buffer": 0,
      "byteLength": 3118584,
      "byteOffset": 3439528,
      "byteStride": 12,
      "name": "floatBufferViews",
      "target": 34962
    },
    {
      "buffer": 0,
      "byteLength": 4158112,
      "byteOffset": 6558112,
      "byteStride": 16,
      "name": "floatBufferViews",
      "target": 34962
    }
  ],
  "buffers": [
    {
      "byteLength": 10716224,
      "uri": "scene.bin"
    }
  ],
  "images": [
    {
      "uri": "textures/Saperda_candida.1001_baseColor.png"
    }
  ],
  "materials": [
    {
      "doubleSided": true,
      "emissiveFactor": [
        0,
        0,
        0
      ],
      "name": "Saperda_candida.1001",
      "pbrMetallicRoughness": {
        "baseColorFactor": [
          1,
          1,
          1,
          1
        ],
        "baseColorTexture": {
          "index": 0,
          "texCoord": 0
        },
        "metallicFactor": 0,
        "roughnessFactor": 1
      }
    }
  ],
  "meshes": [
    {
      "primitives": [
        {
          "attributes": {
            "COLOR_0": 3,
            "NORMAL": 1,
            "POSITION": 0,
            "TANGENT": 2,
            "TEXCOORD_0": 4
          },
          "indices": 5,
          "material": 0,
          "mode": 4
        }
      ]
    },
    {
      "primitives": [
        {
          "attributes": {
            "COLOR_0": 9,
            "NORMAL": 7,
            "POSITION": 6,
            "TANGENT": 8,
            "TEXCOORD_0": 10
          },
          "indices": 11,
          "material": 0,
          "mode": 4
        }
      ]
    }
  ],
  "nodes": [
    {
      "children": [
        1
      ],
      "name": "RootNode (gltf orientation matrix)",
      "rotation": [
        -0.70710678118654746,
        -0,
        -0,
        0.70710678118654757
      ]
    },
    {
      "children": [
        2
      ],
      "matrix": [
        0.81420660018920898,
        -0.56160002946853638,
        -0.14721742272377014,
        0,
        -0.049950774759054184,
        0.18486928939819336,
        -0.98149287700653076,
        0,
        0.5784224271774292,
        0.80649161338806152,
        0.12246944755315781,
        0,
        1.3589712381362915,
        0.59881234169006348,
        -3.8997366428375244,
        1
      ],
      "name": "RootNode (model correction matrix)"
    },
    {
      "children": [
        3,
        4
      ],
      "name": "Saperda_candida.obj.cleaner.materialmerger.gles"
    },
    {
      "mesh": 0,
      "name": ""
    },
    {
      "mesh": 1,
      "name": ""
    }
  ],
  "samplers": [
    {
      "magFilter": 9729,
      "minFilter": 9987,
      "wrapS": 10497,
      "wrapT": 10497
    }
  ],
  "scene": 0,
  "scenes": [
    {
      "name": "OSG_Scene",
      "nodes": [
        0
      ]
    }
  ],
  "textures": [
    {
      "sampler": 0,
      "source": 0
    }
  ]
}

